<?xml version="1.0" encoding="utf-8"?>
<!-- Generator: Adobe Illustrator 19.2.1, SVG Export Plug-In . SVG Version: 6.00 Build 0)  -->
<svg version="1.1" id="Layer_1" xmlns="http://www.w3.org/2000/svg" xmlns:xlink="http://www.w3.org/1999/xlink" x="0px" y="0px"
	 viewBox="0 0 324.5 62" style="enable-background:new 0 0 324.5 62;" xml:space="preserve">
<style type="text/css">
	.st0{fill:url(#SVGID_1_);}
	.st1{fill:url(#SVGID_2_);}
	.st2{fill:url(#SVGID_3_);}
	.st3{fill:url(#SVGID_4_);}
	.st4{fill:url(#SVGID_5_);}
	.st5{fill:url(#SVGID_6_);}
	.st6{fill:url(#SVGID_7_);}
	.st7{fill:url(#SVGID_8_);}
	.st8{fill:url(#SVGID_9_);}
	.st9{fill:url(#SVGID_10_);}
	.st10{fill:url(#SVGID_11_);}
	.st11{fill:none;}
	.st12{fill:#384248;}
	.st13{font-family:'QanelasSoftDEMO-UltraLight';}
	.st14{font-size:46.8485px;}
	.st15{fill:#D95140;}
	.st16{font-family:'QanelasSoftDEMO-ExtraBold';}
	.st17{fill:#E55744;}
	.st18{fill:#C04838;}
	.st19{opacity:0.1;}
	.st20{fill:#010202;}
	.st21{opacity:0.1;fill:#010202;enable-background:new    ;}
	.st22{fill:#EC6050;}
	.st23{fill:#7F2F26;}
	.st24{fill:#EC5F50;}
	.st25{fill:none;stroke:#CDCCCC;stroke-miterlimit:10;}
	.st26{fill:#D15F88;}
	.st27{fill:#EA759E;}
	.st28{fill:#F08AB2;}
</style>
<g>
	<g>
		<linearGradient id="SVGID_1_" gradientUnits="userSpaceOnUse" x1="60.752" y1="33.1679" x2="355.6211" y2="33.1679">
			<stop  offset="0" style="stop-color:#AA1916"/>
			<stop  offset="1" style="stop-color:#000000"/>
		</linearGradient>
		<path class="st0" d="M68.3,31.6c0-9.3,7.5-16.9,16.9-16.9S102,22.3,102,31.6c0,9.3-7.5,16.9-16.9,16.9S68.3,40.9,68.3,31.6z
			 M100.3,31.6c0-8.4-6.7-15.3-15.2-15.3S70,23.2,70,31.6c0,8.4,6.7,15.3,15.2,15.3S100.3,40,100.3,31.6z"/>
		<linearGradient id="SVGID_2_" gradientUnits="userSpaceOnUse" x1="60.752" y1="33.1679" x2="355.6211" y2="33.1679">
			<stop  offset="0" style="stop-color:#AA1916"/>
			<stop  offset="1" style="stop-color:#000000"/>
		</linearGradient>
		<path class="st1" d="M118.3,24.1c4.4,0,7.8,2.9,7.8,8.3v15.2c0,0.3-0.2,0.5-0.5,0.5h-0.7c-0.3,0-0.5-0.2-0.5-0.5V32.4
			c0-4.3-2.6-6.7-6.3-6.7c-4.1,0-8,3-8,9.2v12.7c0,0.3-0.2,0.5-0.5,0.5h-0.7c-0.3,0-0.5-0.2-0.5-0.5V25c0-0.3,0.2-0.5,0.5-0.5h0.7
			c0.3,0,0.5,0.2,0.5,0.5v4.2C111.8,25.5,115.1,24.1,118.3,24.1L118.3,24.1z"/>
		<linearGradient id="SVGID_3_" gradientUnits="userSpaceOnUse" x1="60.752" y1="33.1679" x2="355.6211" y2="33.1679">
			<stop  offset="0" style="stop-color:#AA1916"/>
			<stop  offset="1" style="stop-color:#000000"/>
		</linearGradient>
		<path class="st2" d="M133.2,47.5V14.7c0-0.3,0.2-0.5,0.5-0.5h0.7c0.3,0,0.5,0.2,0.5,0.5v32.8c0,0.3-0.2,0.5-0.5,0.5h-0.7
			C133.4,48,133.2,47.8,133.2,47.5z"/>
		<linearGradient id="SVGID_4_" gradientUnits="userSpaceOnUse" x1="60.752" y1="33.1679" x2="355.6211" y2="33.1679">
			<stop  offset="0" style="stop-color:#AA1916"/>
			<stop  offset="1" style="stop-color:#000000"/>
		</linearGradient>
		<path class="st3" d="M142.7,19.4v-3.7c0-0.3,0.2-0.5,0.5-0.5h0.7c0.3,0,0.5,0.2,0.5,0.5v3.7c0,0.3-0.2,0.5-0.5,0.5h-0.7
			C142.9,19.9,142.7,19.7,142.7,19.4z M142.7,47.5V25c0-0.3,0.2-0.5,0.5-0.5h0.7c0.3,0,0.5,0.2,0.5,0.5v22.5c0,0.3-0.2,0.5-0.5,0.5
			h-0.7C142.9,48,142.7,47.8,142.7,47.5z"/>
		<linearGradient id="SVGID_5_" gradientUnits="userSpaceOnUse" x1="60.752" y1="33.1679" x2="355.6211" y2="33.1679">
			<stop  offset="0" style="stop-color:#AA1916"/>
			<stop  offset="1" style="stop-color:#000000"/>
		</linearGradient>
		<path class="st4" d="M162,24.1c4.4,0,7.8,2.9,7.8,8.3v15.2c0,0.3-0.2,0.5-0.5,0.5h-0.7c-0.3,0-0.5-0.2-0.5-0.5V32.4
			c0-4.3-2.6-6.7-6.3-6.7c-4.1,0-8,3-8,9.2v12.7c0,0.3-0.2,0.5-0.5,0.5h-0.7c-0.3,0-0.5-0.2-0.5-0.5V25c0-0.3,0.2-0.5,0.5-0.5h0.7
			c0.3,0,0.5,0.2,0.5,0.5v4.2C155.5,25.5,158.8,24.1,162,24.1L162,24.1z"/>
		<linearGradient id="SVGID_6_" gradientUnits="userSpaceOnUse" x1="60.752" y1="33.1679" x2="355.6211" y2="33.1679">
			<stop  offset="0" style="stop-color:#AA1916"/>
			<stop  offset="1" style="stop-color:#000000"/>
		</linearGradient>
		<path class="st5" d="M187,24.1c7.1,0,11.3,5.9,11.3,12.3v0.3c0,0.3-0.2,0.5-0.5,0.5h-1.1h-19.8c0.4,5.9,4.5,9.8,10.2,9.8
			c4,0,7.1-1.9,8.4-4.8c0.1-0.2,0.3-0.3,0.6-0.3h0.8c0.3,0,0.5,0.2,0.4,0.5c-1.5,3.7-5.4,6.2-10.2,6.2c-7,0-11.9-5.1-11.9-12.2
			C175.2,29.4,179.9,24.1,187,24.1L187,24.1z M176.9,35.6h19.7c-0.4-6.2-4.5-10-9.7-10C181.2,25.6,177.2,29.8,176.9,35.6z"/>
		<linearGradient id="SVGID_7_" gradientUnits="userSpaceOnUse" x1="60.752" y1="33.1679" x2="355.6211" y2="33.1679">
			<stop  offset="0" style="stop-color:#AA1916"/>
			<stop  offset="1" style="stop-color:#000000"/>
		</linearGradient>
		<path class="st6" d="M226.7,26.4c0,6.2-5,11.2-11.5,11.2h-4.9v9.1c0,0.7-0.4,1.2-1.2,1.2H204c-0.7,0-1.2-0.4-1.2-1.2V16.4
			c0-0.7,0.4-1.2,1.2-1.2h6.3h4.9C221.7,15.2,226.7,20.2,226.7,26.4z M219.2,26.4c0-2.4-1.7-4.2-4-4.2h-4.9v8.4h4.9
			C217.5,30.7,219.2,28.8,219.2,26.4z"/>
		<linearGradient id="SVGID_8_" gradientUnits="userSpaceOnUse" x1="60.752" y1="33.1679" x2="355.6211" y2="33.1679">
			<stop  offset="0" style="stop-color:#AA1916"/>
			<stop  offset="1" style="stop-color:#000000"/>
		</linearGradient>
		<path class="st7" d="M257,46.5c0.6,0.8,0.3,1.5-0.7,1.5h-6c-0.6,0-1.1-0.2-1.5-0.7l-8-10.1H238v9.6c0,0.8-0.4,1.2-1.2,1.2h-5.2
			c-0.8,0-1.2-0.4-1.2-1.2V16.4c0-0.7,0.4-1.2,1.2-1.2h6.3h5.2c6.2,0,11.2,5,11.2,11.2c0,3.9-2.3,7.5-5.8,9.4L257,46.5L257,46.5z
			 M238,30.7h5.2c2.1,0,3.7-1.8,3.7-4.2s-1.7-4.2-3.7-4.2H238V30.7z"/>
		<linearGradient id="SVGID_9_" gradientUnits="userSpaceOnUse" x1="60.752" y1="33.1679" x2="355.6211" y2="33.1679">
			<stop  offset="0" style="stop-color:#AA1916"/>
			<stop  offset="1" style="stop-color:#000000"/>
		</linearGradient>
		<path class="st8" d="M261.2,15.2h5.2c0.7,0,1.2,0.4,1.2,1.2v30.4c0,0.7-0.4,1.2-1.2,1.2h-5.2c-0.7,0-1.2-0.4-1.2-1.2V16.4
			C260,15.6,260.4,15.2,261.2,15.2z"/>
		<linearGradient id="SVGID_10_" gradientUnits="userSpaceOnUse" x1="60.752" y1="33.1679" x2="355.6211" y2="33.1679">
			<stop  offset="0" style="stop-color:#AA1916"/>
			<stop  offset="1" style="stop-color:#000000"/>
		</linearGradient>
		<path class="st9" d="M291.6,15.2h5.2c0.8,0,1.2,0.4,1.2,1.2v30.4c0,0.7-0.4,1.2-1.2,1.2h-3.5c-0.6,0-1.1-0.2-1.5-0.8l-11.2-17.5
			v17.1c0,0.7-0.4,1.2-1.2,1.2h-5.2c-0.7,0-1.2-0.4-1.2-1.2V16.4c0-0.7,0.4-1.2,1.2-1.2h3.5c0.6,0,1.1,0.2,1.5,0.7l11.2,17.5V16.4
			C290.4,15.6,290.9,15.2,291.6,15.2z"/>
		<linearGradient id="SVGID_11_" gradientUnits="userSpaceOnUse" x1="60.752" y1="33.1679" x2="355.6211" y2="33.1679">
			<stop  offset="0" style="stop-color:#AA1916"/>
			<stop  offset="1" style="stop-color:#000000"/>
		</linearGradient>
		<path class="st10" d="M323.7,16.4v4.9c0,0.7-0.4,1.2-1.2,1.2h-6.3v24.4c0,0.7-0.4,1.2-1.2,1.2h-5.2c-0.8,0-1.2-0.4-1.2-1.2V22.4
			h-6.3c-0.8,0-1.2-0.4-1.2-1.2v-4.9c0-0.7,0.4-1.2,1.2-1.2h13.8h6.3C323.3,15.2,323.7,15.6,323.7,16.4z"/>
	</g>
	<rect x="65.8" y="15.2" class="st11" width="259.3" height="36.3"/>
	<text transform="matrix(1 0 0 1 65.7517 47.9953)"><tspan x="0" y="0" class="st12 st13 st14">Online</tspan><tspan x="134.3" y="0" class="st15 st16 st14">PRINT</tspan></text>
</g>
<g>
	<polygon class="st23" points="22.4,50.8 22.4,58 13.5,61.5 16.2,51.3 	"/>
	<path class="st15" d="M48,42.9L16.2,54.5L23.4,33C23.4,33,39.5,36,48,42.9z"/>
	<path class="st23" d="M12.8,11.5C12.6,11.5,1,10.5,1,10.5L23.4,33L12.8,11.5z"/>
	<path class="st24" d="M52.9,31.1c0,0,7.5,8.5,6.9,8.3c-0.6-0.2-9.5-2.9-9.7-3.2C49.8,35.9,52.9,31.1,52.9,31.1z"/>
	<path class="st15" d="M53.7,30.1c0,0-5.2,12-5.7,12.8c-3.9-4.3-7.9-13.2-7.9-13.2L53.7,30.1z"/>
	<polygon class="st24" points="48,42.9 28,9.1 23.4,33 	"/>
	<polygon class="st15" points="28,9.1 3.4,0.5 23.4,33 	"/>
	<path class="st24" d="M22.5,35.3c-0.2,0.8-3.7,22-3.7,22l-9.3,4.2C11.8,55.1,22.5,35.3,22.5,35.3z"/>
</g>
</svg>
